<svg xmlns="http://www.w3.org/2000/svg" version="1.1" viewBox="0 0 515.86 515.96" width="515.86" height="515.96">
  <!--!Font Awesome Free v7.2.0 by @fontawesome - https://fontawesome.com License - https://fontawesome.com/license/free Copyright 2026 Fonticons, Inc.-->
  <path fill="currentcolor" d="M380.49,122.9l12.1,12.1c9.4,9.4,9.4,24.6,0,33.9l-29.1,29.2-46.1-46.1,29.1-29.1c9.4-9.4,24.6-9.4,33.9,0h.1ZM149.29,320.2l134.2-134.3,46.1,46.1-134.3,134.2c-2.9,2.9-6.5,5-10.4,6.1l-58.5,16.7,16.7-58.5c1.1-3.9,3.2-7.5,6.1-10.4l.1.1ZM312.59,89l-197.3,197.2c-8.7,8.7-15,19.4-18.3,31.1l-28.6,100c-2.4,8.4-.1,17.4,6.1,23.6,6.2,6.2,15.2,8.5,23.6,6.1l100-28.6c11.8-3.4,22.5-9.7,31.1-18.3l197.3-197.2c28.1-28.1,28.1-73.7,0-101.8l-12.1-12.1c-28.1-28.1-73.7-28.1-101.8,0Z"/>
</svg>

